<svg width="209" height="90" viewBox="0 0 209 90" xmlns="http://www.w3.org/2000/svg">
<path d="M16.912 90C6.62767 90 0 82.9278 0 73.9164C0 63.1939 9.71296 55.4373 9.71296 42.5475C9.71296 37.4144 8.22745 33.308 8.22745 27.6046C8.22745 15.3992 14.9694 3.53612 29.8245 3.53612C40.9087 3.53612 45.8223 10.038 45.8223 17.4525C45.8223 26.5779 36.4522 31.2548 35.6523 39.8099L34.8524 39.924C33.0241 32.8517 37.9377 27.2624 37.9377 20.6464C37.9377 13.8023 34.1668 10.7224 29.1389 10.7224C21.597 10.7224 17.3691 16.7681 16.912 24.4106C16.5692 30.3422 18.2832 36.9582 18.2832 42.6616C18.2832 55.7795 9.02734 62.2814 9.02734 72.5475C9.02734 78.0228 12.684 81.9011 18.0547 81.9011C23.7682 81.9011 27.6534 78.251 29.8245 73.8023C32.1099 69.1255 32.2242 62.8517 38.509 60.4563L39.1946 61.3688C34.0525 65.2471 36.5664 73.9164 32.7955 80.9886C29.7102 86.8061 23.1968 90 16.912 90ZM57.5921 89.7719C48.7933 89.7719 42.0514 84.1825 42.0514 76.5399C42.0514 68.327 50.0503 63.5361 50.2788 52.3574C50.2788 48.7072 49.2504 45.5133 49.3647 41.5209C49.479 31.9392 54.6211 23.0418 66.0481 23.0418C74.6184 23.0418 79.3034 28.1749 79.3034 35.3612C79.3034 43.1179 73.9327 49.8479 73.9327 59.7719C73.9327 63.1939 74.6184 66.616 74.6184 70.3802C74.3898 81.9011 67.9907 89.7719 57.5921 89.7719ZM57.8207 82.6996C64.4483 82.6996 66.7337 75.3992 66.848 68.6692C66.9623 65.4753 66.7337 62.3954 66.7337 59.6578C66.7337 47.9087 71.6473 42.7757 71.6473 36.73C71.6473 32.6236 69.3619 30.1141 65.3625 30.1141C59.8775 30.1141 57.5921 34.9049 57.5921 41.4068C57.5921 45.057 58.1635 49.0494 58.1635 52.2433C58.1635 63.6502 50.7359 67.7567 50.6217 74.7148C50.6217 78.9354 53.2499 82.6996 57.8207 82.6996ZM80.1033 88.7452L79.532 88.0608C83.0744 85.2091 86.0454 81.1027 87.5309 76.0836C93.4729 58.8593 82.8458 46.4259 95.5298 33.0798C91.8732 33.1939 87.5309 34.2205 84.6741 35.8175L84.1028 35.1331C88.2165 32.2814 89.4735 25.3232 97.3581 26.0076C100.101 20.9886 97.8152 16.5399 98.9579 10.6084C99.9863 5.24715 103.414 0.684411 109.928 0.684411C113.813 0.684411 117.127 2.62357 119.298 5.58935L118.612 6.38783C115.413 3.19392 109.128 5.47529 107.528 11.5209C106.157 16.5399 108.557 22.5856 104.329 26.4639L104.443 26.5779C111.185 24.1825 118.155 29.6578 122.383 25.6654C126.268 22.0152 123.412 15.7414 124.44 9.80989C125.469 4.44867 128.782 0 135.296 0C139.181 0 142.723 1.59696 145.58 4.22053L145.009 5.36122C141.009 2.73764 134.61 4.67681 133.01 10.7224C131.639 15.7414 133.925 22.5856 129.697 26.4639L129.811 26.5779C135.296 24.6388 138.267 28.289 144.666 25.8935L145.237 26.5779C142.266 28.6312 141.009 33.6502 134.496 33.6502C132.325 33.6502 129.697 33.0798 127.868 33.0798C127.868 41.2928 124.44 42.2053 122.269 49.962C118.041 64.5627 127.64 77.2243 117.698 84.7529C113.013 88.403 109.242 86.3498 105.471 88.7452L104.9 88.0608C108.442 85.2091 111.413 81.1027 112.899 76.0836C115.756 67.8707 111.185 60.4563 113.584 50.9886C115.413 43.6882 119.869 41.4068 121.241 32.2814C119.412 33.6502 118.612 34.3346 115.184 34.3346C112.67 34.3346 110.613 33.0798 108.1 33.0798C103.186 33.0798 99.7578 35.9316 98.2723 42.2053C95.4155 54.1825 101.586 73.5741 94.8442 82.0152C89.1307 89.2015 83.8742 86.3498 80.1033 88.7452ZM144.209 89.5437C136.553 89.5437 131.639 84.5247 131.639 77.2243C131.639 68.5551 138.267 63.5361 138.267 53.0418C138.267 48.5932 137.467 46.1977 137.467 41.1787C137.467 29.5437 143.98 23.6122 152.436 23.6122C157.693 23.6122 160.207 26.0076 165.12 26.0076C168.548 26.0076 170.034 24.981 171.862 23.27L172.434 23.9544C166.492 31.4829 165.12 38.2129 165.12 45.1711C165.12 50.076 165.92 55.8935 161.806 60.1141C157.921 64.1065 150.722 64.9049 143.98 62.3954C142.838 67.3004 139.638 70.1521 139.638 75.2852C139.638 79.0494 141.695 82.1293 146.609 82.1293C154.265 82.1293 154.379 74.2586 161.578 71.1787L162.035 72.0913C157.464 74.4867 157.464 89.5437 144.209 89.5437ZM145.237 58.7452C150.722 59.0875 154.15 58.5171 156.093 54.7529C157.693 51.5589 157.236 48.251 157.236 44.943C157.236 36.2738 160.664 32.1673 164.777 29.6578L164.435 28.9734C157.578 31.2548 155.522 29.3156 151.522 31.0266C148.208 32.5095 145.352 35.7034 145.352 40.9506C145.352 44.2586 146.38 46.7681 146.38 51.1027C146.38 53.8403 145.923 56.692 145.237 58.7452ZM180.775 89.5437C173.119 89.5437 168.206 84.5247 168.206 77.2243C168.206 68.5551 174.833 63.5361 174.833 53.0418C174.833 48.5932 174.033 46.1977 174.033 41.1787C174.033 29.5437 180.547 23.6122 189.003 23.6122C194.259 23.6122 196.773 26.0076 201.687 26.0076C205.115 26.0076 206.6 24.981 208.429 23.27L209 23.9544C203.058 31.4829 201.687 38.2129 201.687 45.1711C201.687 50.076 202.487 55.8935 198.373 60.1141C194.488 64.1065 187.289 64.9049 180.547 62.3954C179.404 67.3004 176.204 70.1521 176.204 75.2852C176.204 79.0494 178.261 82.1293 183.175 82.1293C190.831 82.1293 190.945 74.2586 198.144 71.1787L198.601 72.0913C194.031 74.4867 194.031 89.5437 180.775 89.5437ZM181.804 58.7452C187.289 59.0875 190.717 58.5171 192.659 54.7529C194.259 51.5589 193.802 48.251 193.802 44.943C193.802 36.2738 197.23 32.1673 201.344 29.6578L201.001 28.9734C194.145 31.2548 192.088 29.3156 188.089 31.0266C184.775 32.5095 181.918 35.7034 181.918 40.9506C181.918 44.2586 182.946 46.7681 182.946 51.1027C182.946 53.8403 182.489 56.692 181.804 58.7452Z"/>
</svg>
