<svg width="2565" height="284" viewBox="0 0 2565 284" fill="none" xmlns="http://www.w3.org/2000/svg">
<path d="M-1458 0V56.9585C-1291.97 56.9589 -1114.47 36.3891 -953.784 85.9382C-830.257 124.03 -701.398 124.029 -577.871 85.9388L-577.87 85.9385C-420.538 37.4238 -299.669 53.2073 -181.449 171.838C-149.55 203.849 -117.65 235.859 -79.3925 257.928C-55.4428 274.344 -26.143 284 5.5 284C37.1431 284 66.443 274.344 90.3927 257.927C128.651 235.859 160.55 203.849 192.449 171.839L192.45 171.838C416.229 -52.7201 691.376 160.667 964.783 85.9382C1108.95 46.5342 1261.55 27.7935 1410 49C1536.51 67.0727 1659.96 114.918 1788.17 114.918C2016.85 114.918 2184.45 -16.9215 2372.55 171.838L2372.55 171.84C2404.45 203.85 2436.35 235.859 2474.61 257.928C2498.56 274.344 2527.86 284 2559.5 284C2591.14 284 2620.44 274.344 2644.39 257.927C2682.65 235.859 2714.55 203.848 2746.45 171.838C2864.67 53.2069 2985.54 37.4241 3142.87 85.9385C3266.4 124.029 3395.26 124.03 3518.78 85.9382C3679.47 36.3891 3856.97 56.9589 4023 56.9585V0H-1458Z" fill="#19224F"/>
</svg>
