<svg width="2907" height="246" viewBox="0 0 2907 246" fill="none" xmlns="http://www.w3.org/2000/svg">
<path d="M2907 0V154.311C2813.02 154.311 2766.03 134.854 2719.04 115.397C2591.43 62.5596 2460.05 63.0438 2339.79 133.477C2222.4 202.231 2092.44 204.481 1965.93 157.735C1838.46 110.629 1708.65 112.497 1593.18 187.5C1575.43 199.033 1557.68 210.565 1537.62 220.526C1476.42 256.622 1390.22 255.181 1331.38 214.795C1315.7 206.26 1301.26 196.88 1286.82 187.5C1238.71 156.25 1190.6 125 1096.63 125C1002.65 125 958.358 141.367 914.065 157.735C787.562 204.481 657.6 202.231 540.21 133.477C419.951 63.0438 288.57 62.5595 160.96 115.397C113.97 134.854 66.98 154.311 -27 154.311V0H2907Z" fill="#FAF1F2"/>
</svg>
